<svg xmlns="http://www.w3.org/2000/svg" width="39" height="39" viewBox="2.112 1.537 37.351 37.349" fill="#fff">
<path class="my-icon" paint-order="stroke fill markers" fill-rule="evenodd" d="M39.094 16.069a1.26 1.26 0 0 0 0-1.781l-1.89-1.89a1.26 1.26 0 0 0-1.598-.15l-3.974 2.7 2.684-4a1.26 1.26 0 0 0-.155-1.593l-4.1-4.099a1.259 1.259 0 0 0-1.436-.244l-.709.34.34-.752a1.26 1.26 0 0 0-.258-1.408L26.71 1.905a1.26 1.26 0 0 0-1.78 0l-9.997 9.996 14.164 14.163 9.996-9.995zm-26.02-2.307l-2.894 2.893a1.26 1.26 0 0 0 0 1.78l2.745 2.746c.528.528.785 1.258.703 2.002-.081.743-.49 1.4-1.122 1.802-8.065 5.141-8.817 5.893-9.064 6.14a4.552 4.552 0 0 0 0 6.431 4.553 4.553 0 0 0 6.43 0c.248-.247 1-.999 6.141-9.064a2.442 2.442 0 0 1 1.802-1.12 2.444 2.444 0 0 1 2.003.701l2.745 2.745a1.26 1.26 0 0 0 1.78 0l2.894-2.893-14.164-14.163zm-5.08 21.76a1.78 1.78 0 1 1-2.518-2.518 1.78 1.78 0 0 1 2.517 2.518z"/>
</svg>
