<svg xmlns="http://www.w3.org/2000/svg" width="50" height="38" viewBox="2 2 49 37" fill="#ffc000"><path fill="#FFC000" paint-order="stroke fill markers" fill-rule="evenodd" d="M48.129 33.307H4.87C3.285 33.307 2 34.581 2 36.153S3.285 39 4.87 39H48.13c1.586 0 2.87-1.274 2.87-2.846s-1.284-2.846-2.87-2.846zm-8.71-24.163v5.663c0 .787-.641 1.423-1.435 1.423a1.428 1.428 0 0 1-1.435-1.423V7.32a21.472 21.472 0 0 0-2.871-1.233v11.567c0 .787-.642 1.423-1.436 1.423a1.428 1.428 0 0 1-1.435-1.423V3.423A1.43 1.43 0 0 0 29.37 2H23.63a1.43 1.43 0 0 0-1.436 1.423v14.23c0 .787-.642 1.423-1.435 1.423a1.429 1.429 0 0 1-1.436-1.423V6.086c-.99.348-1.953.752-2.87 1.233v7.488c0 .787-.643 1.423-1.436 1.423a1.429 1.429 0 0 1-1.436-1.423V9.144c-5.222 3.896-8.613 10.07-8.613 17.048v4.27h43.066v-4.27c0-6.977-3.392-13.152-8.613-17.048z"/></svg>