<svg xmlns="http://www.w3.org/2000/svg" width="39" height="39" viewBox="2 2 38 38" fill="#ffc000"><path fill="#FFC000" paint-order="stroke fill markers" fill-rule="evenodd" d="M21 15.433a4.458 4.458 0 0 0-4.453 4.453A4.458 4.458 0 0 0 21 24.34a4.458 4.458 0 0 0 4.453-4.454A4.458 4.458 0 0 0 21 15.433zm18.07 2.242l-2.958-.48a15.443 15.443 0 0 0-1.737-4.188l1.7-2.381a1.113 1.113 0 0 0-.119-1.434l-3.148-3.149a1.11 1.11 0 0 0-1.434-.119l-2.382 1.7a15.452 15.452 0 0 0-4.187-1.736l-.48-2.958A1.112 1.112 0 0 0 23.227 2h-4.454c-.544 0-1.009.393-1.098.93l-.48 2.958a15.44 15.44 0 0 0-4.187 1.737l-2.382-1.7a1.109 1.109 0 0 0-1.434.118L6.043 9.192a1.113 1.113 0 0 0-.118 1.434l1.7 2.381a15.44 15.44 0 0 0-1.737 4.187l-2.957.481c-.537.09-.931.553-.931 1.098v4.453c0 .545.394 1.01.93 1.098l2.958.481c.37 1.476.954 2.879 1.737 4.187l-1.7 2.382a1.113 1.113 0 0 0 .119 1.434l3.148 3.148c.384.384.992.433 1.434.118l2.382-1.7a15.44 15.44 0 0 0 4.187 1.738l.48 2.957c.09.537.554.93 1.098.93h4.454c.544 0 1.008-.393 1.098-.93l.48-2.958a15.425 15.425 0 0 0 4.187-1.737l2.382 1.7a1.117 1.117 0 0 0 1.434-.118l3.148-3.149c.385-.384.435-.991.119-1.434l-1.7-2.381a15.429 15.429 0 0 0 1.737-4.187l2.957-.48c.537-.09.931-.554.931-1.099v-4.453c0-.545-.394-1.009-.93-1.098zM21 33.245c-6.753 0-12.246-5.493-12.246-12.246 0-6.752 5.493-12.245 12.246-12.245 6.752 0 12.246 5.493 12.246 12.245 0 6.753-5.494 12.247-12.246 12.247zm5.143-9.148c-1.226 1.494-3.064 2.47-5.143 2.47-2.08 0-3.917-.976-5.143-2.47-1.067.946-1.845 2.185-2.275 3.577 1.835 2.038 4.466 3.345 7.418 3.345s5.582-1.307 7.418-3.345c-.43-1.392-1.208-2.631-2.275-3.577z"/></svg>