<svg xmlns="http://www.w3.org/2000/svg" width="35" height="39" viewBox="2 2 34 38" fill="#ffc000"><path fill="#FFC000" paint-order="stroke fill markers" fill-rule="evenodd" d="M24.045 23.989H13.957a.616.616 0 0 0-.623.608v1.015c0 .294.12.575.332.783l1.838 1.795-1.259 6.145a4.639 4.639 0 0 0 1.006 3.932A4.876 4.876 0 0 0 19.001 40a4.877 4.877 0 0 0 3.75-1.733 4.639 4.639 0 0 0 1.006-3.932l-1.259-6.145 1.838-1.795c.212-.208.317-.341.317-.635v-.794c0-.336-.264-.977-.608-.977zM32.6 6.426h-1.133V5.32c0-1.838-1.519-3.32-3.4-3.32H5.4C3.519 2 2 3.482 2 5.32v4.427c0 1.837 1.519 3.32 3.4 3.32h1.133v4.427c0 1.222 1.015 2.213 2.267 2.213s2.267-.99 2.267-2.213v-3.32a1.12 1.12 0 0 1 1.133-1.107 1.12 1.12 0 0 1 1.133 1.107v1.107c0 1.222 1.015 2.213 2.267 2.213s2.267-.99 2.267-2.213v-2.214h10.2c1.881 0 3.4-1.483 3.4-3.32V8.64H32.6c.635 0 1.133.487 1.133 1.107v2.766c0 .488-.34.93-.816 1.063l-12.58 3.497c-1.45.421-2.47 1.727-2.47 3.187v1.43h2.266v-1.43c0-.486.34-.929.816-1.062l12.58-3.497c1.45-.42 2.471-1.726 2.471-3.187V9.747c0-1.837-1.519-3.32-3.4-3.32z"/></svg>